<svg width="28" height="28" viewBox="0 0 28 28" fill="none" xmlns="http://www.w3.org/2000/svg">
<path d="M21.35 6.66166C20.895 6.20666 20.16 6.20666 19.705 6.66166L14 12.355L8.29497 6.65C7.83997 6.195 7.10497 6.195 6.64997 6.65C6.19497 7.105 6.19497 7.84 6.64997 8.295L12.355 14L6.64997 19.705C6.19497 20.16 6.19497 20.895 6.64997 21.35C7.10497 21.805 7.83997 21.805 8.29497 21.35L14 15.645L19.705 21.35C20.16 21.805 20.895 21.805 21.35 21.35C21.805 20.895 21.805 20.16 21.35 19.705L15.645 14L21.35 8.295C21.7933 7.85166 21.7933 7.105 21.35 6.66166Z" fill="black"/>
</svg>
