<svg width="28" height="28" viewBox="0 0 28 28" fill="none" xmlns="http://www.w3.org/2000/svg">
<path d="M7.00004 22.1667C7.00004 23.45 8.05004 24.5 9.33337 24.5H18.6667C19.95 24.5 21 23.45 21 22.1667V10.5C21 9.21667 19.95 8.16667 18.6667 8.16667H9.33337C8.05004 8.16667 7.00004 9.21667 7.00004 10.5V22.1667ZM21 4.66667H18.0834L17.255 3.83833C17.045 3.62833 16.7417 3.5 16.4384 3.5H11.5617C11.2584 3.5 10.955 3.62833 10.745 3.83833L9.91671 4.66667H7.00004C6.35837 4.66667 5.83337 5.19167 5.83337 5.83333C5.83337 6.475 6.35837 7 7.00004 7H21C21.6417 7 22.1667 6.475 22.1667 5.83333C22.1667 5.19167 21.6417 4.66667 21 4.66667Z" fill="black"/>
</svg>
